# xmcd CD database file generated by Grip 3.3.0
# 
# Track frame offsets:
#       150
#       11363
#       26150
#       43498
#       57615
#       73833
#       85395
#       102835
#       121985
#       138218
# 
# Disc length: 2061 seconds
# 
# Revision: 11
# Processed by: cddbd v1.5.2PL0 Copyright (c) Steve Scherf et al.
# Submitted via: Grip 3.3.0
# 
DISCID=8e080b0a
DTITLE=Country Super Hits - Various Artists
DYEAR=1994
DGENRE=Country
TTITLE0=Conway Twitty - Hello Darlin'
TTITLE1=George Jones - He Stopped Loving Her Today
TTITLE2=Ricky Skaggs - Country Boy
TTITLE3=David Allan Coe - The Ride
TTITLE4=Charlie Daniels - The Devil Went Down To Georgia
TTITLE5=Willie Nelson - On The Road Again
TTITLE6=Vern Gosdin - Chiseled In Stone
TTITLE7=Merle Haggard - Are The Good Times Really Over
TTITLE8=Exile - Kiss You All Over
TTITLE9=Shenandoah - Next To You, Next To Me
EXTD=This is a country compilation album!
EXTT0=
EXTT1=
EXTT2=
EXTT3=
EXTT4=
EXTT5=
EXTT6=
EXTT7=
EXTT8=
EXTT9=
PLAYORDER=
